<svg version="1.1" id="Layer_1" xmlns="http://www.w3.org/2000/svg" xmlns:xlink="http://www.w3.org/1999/xlink" x="0px" y="0px"
	 width="100%" viewBox="0 0 1678 937" xml:space="preserve">
<path fill="none" opacity="1.000000" stroke="#000000" stroke-linecap="round" stroke-linejoin="round" stroke-width="15.000000"
	d="
M1128.000000,597.000000 
	C1135.329102,597.694458 1141.187866,593.466980 1147.464600,590.912964 
	C1163.474365,584.398499 1179.954102,579.851074 1196.983765,576.906067 
	C1210.424194,574.581787 1223.896484,573.431519 1237.499878,573.521545 
	C1241.334106,573.546875 1245.168945,573.791626 1248.999512,574.009460 
	C1255.291748,574.367249 1256.392700,573.256775 1257.884644,566.972595 
	C1261.788574,550.530334 1264.092651,533.790955 1266.013550,517.001526 
	C1269.246094,488.749634 1270.225220,460.385986 1269.401489,432.002869 
	C1268.531860,402.033081 1264.518799,372.506470 1252.967285,344.513489 
	C1242.080078,318.130035 1225.835571,295.998444 1200.988159,281.019684 
	C1187.762085,273.046661 1173.433105,268.269928 1157.999634,267.004822 
	C1117.355103,263.673279 1082.726074,277.160614 1053.545776,305.047852 
	C1029.953125,327.595032 1016.360168,355.787323 1007.869141,386.964355 
	C1002.446472,406.875061 999.330994,427.060242 996.876099,447.485107 
	C993.794556,473.123993 994.266418,498.822510 994.695862,524.496704 
	C994.924805,538.181885 996.893982,551.867676 998.609741,565.486145 
	C999.531372,572.801453 1001.677124,574.165344 1009.499023,573.963135 
	C1022.856140,573.617920 1036.226440,573.406860 1049.492065,575.063721 
	C1071.696411,577.837158 1093.217529,583.305481 1113.477539,593.046692 
	C1117.827637,595.138306 1122.119873,597.140442 1127.000000,597.500000 
"/>
<path fill="none" opacity="1.000000" stroke="#000000" stroke-linecap="round" stroke-linejoin="round" stroke-width="17.000000"
	d="
M389.000000,314.000000 
	C389.578949,310.330200 388.030426,308.470764 384.549011,306.891937 
	C369.391174,300.018127 353.560425,296.575134 337.018829,294.822357 
	C310.259155,291.986816 284.304016,295.094116 259.042847,303.626831 
	C239.990173,310.062469 222.839233,320.014771 210.547775,336.535553 
	C194.443588,358.180969 192.786835,381.440704 204.574539,405.463440 
	C213.636292,423.930756 228.774323,436.991089 244.971237,449.038666 
	C264.878143,463.845825 286.784973,475.480316 307.522369,488.965576 
	C320.431000,497.359894 333.396851,505.644958 343.977142,517.021240 
	C347.906158,521.245911 350.918671,525.988220 351.530426,531.996887 
	C352.486664,541.389282 346.138031,545.817261 339.485321,549.976501 
	C329.478851,556.232544 318.391998,560.176941 307.491852,564.479370 
	C283.396027,573.990417 258.643158,581.606201 233.969955,589.404968 
	C218.130112,594.411621 201.998810,598.495789 186.001709,603.006042 
	C184.197250,603.514771 182.461151,604.437317 180.500000,603.750000 
"/>
<path fill="none" opacity="1.000000" stroke="#000000" stroke-linecap="round" stroke-linejoin="round" stroke-width="18.000000"
	d="
M1491.000000,305.000000 
	C1491.494751,301.211273 1489.865601,299.055023 1486.573730,296.888000 
	C1463.977295,282.012939 1439.135864,276.049316 1412.518921,279.161499 
	C1385.598267,282.309174 1363.981689,295.316345 1351.214478,319.612701 
	C1339.242065,342.396393 1340.659546,368.185059 1358.515991,390.987457 
	C1369.913330,405.541595 1384.503662,416.496857 1399.484009,427.022766 
	C1417.025757,439.348450 1435.023560,451.079803 1450.993408,465.507233 
	C1466.295166,479.330933 1481.073975,493.654022 1489.448730,513.022156 
	C1495.804565,527.721191 1497.474365,542.538574 1487.448242,556.462708 
	C1479.359741,567.695984 1467.346680,573.023682 1454.480347,576.425537 
	C1442.566406,579.575562 1430.288696,580.274536 1418.009399,581.134033 
	C1404.588257,582.073425 1391.291626,580.607056 1378.015503,579.757263 
	C1363.799805,578.847229 1349.595093,576.988281 1335.466309,574.708740 
	C1330.043091,573.833740 1324.630005,572.093689 1319.000000,572.500000 
"/>
<path fill="none" opacity="1.000000" stroke="#000000" stroke-linecap="round" stroke-linejoin="round" stroke-width="11.000000"
	d="
M1141.500000,268.000000 
	C1141.850464,286.885712 1139.465942,305.645508 1138.832642,324.494385 
	C1138.435181,336.322418 1137.632446,348.170990 1136.855347,359.990479 
	C1135.420410,381.815735 1134.767944,403.671783 1133.538696,425.502167 
	C1132.826172,438.156860 1132.487549,450.832855 1132.002441,463.500092 
	C1130.994019,489.833099 1129.919556,516.164001 1129.031128,542.501038 
	C1128.525391,557.495239 1128.349365,572.500366 1127.989990,587.499756 
	C1127.890259,591.668030 1127.666626,595.833313 1127.500000,600.000000 
"/>
<path fill="none" opacity="1.000000" stroke="#000000" stroke-linecap="round" stroke-linejoin="round" stroke-width="16.000000"
	d="
M937.000000,504.500000 
	C941.293396,510.355377 942.405457,516.689331 941.670837,524.017151 
	C940.390381,536.788879 940.634277,549.713135 939.365173,562.486633 
	C938.155701,574.660461 937.243042,586.865479 935.688782,599.024109 
	C933.997192,612.257629 932.252625,625.455505 929.468811,638.493347 
	C925.742310,655.946838 920.825623,672.926025 909.012573,687.010559 
	C898.792053,699.196411 885.424744,705.147705 870.008667,707.555359 
	C855.994934,709.743958 841.999451,708.595398 828.003845,707.920776 
	C822.480530,707.654480 817.000000,706.500000 811.500000,705.750000 
"/>
<path fill="none" opacity="1.000000" stroke="#000000" stroke-linecap="round" stroke-linejoin="round" stroke-width="17.000000"
	d="
M783.000000,419.500000 
	C781.343689,419.229889 779.713867,419.671234 777.978699,419.060486 
	C762.206421,413.508728 748.913635,419.862762 737.108826,429.138519 
	C716.809570,445.089020 706.320496,467.260071 701.688782,492.035278 
	C698.348572,509.901886 698.732300,527.903748 706.493469,545.002930 
	C710.001953,552.732788 714.785583,559.274475 723.008240,562.478882 
	C731.617065,565.833801 739.598145,563.839478 746.982239,558.973083 
	C759.861511,550.485168 767.206055,537.747314 772.925171,523.968933 
	C775.449158,517.888000 778.181946,512.130188 783.506592,508.008484 
	C786.234253,505.897095 785.654907,502.714325 785.923157,499.992432 
	C788.286072,476.019836 785.869080,451.994598 786.596375,428.002930 
	C786.711609,424.202087 782.940491,421.375580 784.524231,417.509949 
	C785.918579,414.106720 786.024231,410.595428 786.021667,406.999969 
	C785.988770,361.000000 786.006714,315.000000 785.988281,269.000000 
	C785.986633,264.996338 786.983887,261.017029 786.250000,257.000000 
"/>
<path fill="none" opacity="1.000000" stroke="#000000" stroke-linecap="round" stroke-linejoin="round" stroke-width="16.000000"
	d="
M394.500000,398.750000 
	C401.833344,398.833344 409.167938,398.856720 416.499725,399.013000 
	C430.000702,399.300751 443.502716,399.588409 456.997986,400.057648 
	C460.178192,400.168243 463.333344,398.607147 467.055450,400.167999 
	C466.513611,405.685486 467.135315,411.372742 467.289856,417.005768 
	C467.911835,439.674774 469.649292,462.302460 469.573334,485.000244 
	C469.522003,500.332306 470.447266,515.667053 470.427246,530.999878 
	C470.403503,549.166992 469.823456,567.333130 469.518280,585.500305 
	C469.493134,586.996338 470.515106,588.452881 469.750000,590.000000 
"/>
<path fill="none" opacity="1.000000" stroke="#000000" stroke-linecap="round" stroke-linejoin="round" stroke-width="16.000000"
	d="
M550.750000,427.500000 
	C550.993530,434.503876 550.994690,441.484955 550.601135,448.505676 
	C549.937927,460.335999 551.820496,472.130096 551.648926,484.002167 
	C551.533447,491.990845 552.535645,500.038300 553.558655,507.992462 
	C556.111145,527.838745 558.242432,547.819519 568.969299,565.518616 
	C573.242859,572.569885 578.837891,576.970398 587.497375,575.977112 
	C592.712219,575.378967 596.853394,572.504944 600.475708,568.975098 
	C609.934448,559.757874 615.878174,548.243958 621.533264,536.516052 
	C627.609131,523.915466 631.946106,510.666077 636.431580,497.476715 
	C637.955078,492.996918 640.026245,489.171082 643.995300,486.493011 
	C646.101257,485.072052 646.831055,483.037506 647.048767,480.504181 
	C648.281372,466.162170 649.551819,451.820862 651.107666,437.511688 
	C651.382202,434.987000 651.261353,432.495209 651.500000,430.000000 
"/>
<path fill="none" opacity="1.000000" stroke="#000000" stroke-linecap="round" stroke-linejoin="round" stroke-width="16.000000"
	d="
M840.750000,414.500000 
	C841.333313,424.333344 841.396851,434.231903 842.620972,443.984833 
	C844.490112,458.876495 846.291626,473.771698 849.320190,488.536896 
	C852.782959,505.419220 857.491272,521.768982 864.445435,537.524048 
	C866.638672,542.492859 869.693481,546.823303 873.038330,550.969055 
	C876.711731,555.521912 881.625000,558.013855 887.500000,558.500000 
"/>
<path fill="none" opacity="1.000000" stroke="#000000" stroke-linecap="round" stroke-linejoin="round" stroke-width="16.000000"
	d="
M457.500000,249.500000 
	C457.999908,268.526306 458.952789,287.524323 460.438690,306.504791 
	C461.428345,319.146179 461.467255,331.865814 462.586975,344.492279 
	C464.211029,362.804993 465.239868,381.140808 466.000000,399.500000 
"/>
<path fill="none" opacity="1.000000" stroke="#000000" stroke-linecap="round" stroke-linejoin="round" stroke-width="16.000000"
	d="
M646.500000,485.000000 
	C652.943604,491.221252 652.852539,499.480682 653.495605,507.500366 
	C655.161255,528.272644 658.170898,548.821289 663.469788,569.007935 
	C664.428833,572.661377 666.223022,576.110901 666.250000,580.000000 
"/>
<path fill="none" opacity="1.000000" stroke="#000000" stroke-linecap="round" stroke-linejoin="round" stroke-width="16.000000"
	d="
M947.500000,422.500000 
	C947.399353,439.323273 944.485779,455.869263 942.431885,472.491577 
	C941.314026,481.538788 939.604553,490.519928 937.896362,499.480255 
	C937.613464,500.964203 937.995483,502.956787 936.016968,504.031250 
	C928.452087,508.139404 925.700012,515.646179 922.411072,522.960022 
	C917.742371,533.342712 912.107483,543.184998 903.526184,551.028687 
	C899.475098,554.731628 895.340393,557.963989 889.500793,558.051575 
	C888.543335,558.065979 887.211487,558.378113 887.500000,560.000000 
"/>
<path fill="none" opacity="1.000000" stroke="#000000" stroke-linecap="round" stroke-linejoin="round" stroke-width="16.000000"
	d="
M785.500000,507.500000 
	C791.941040,512.891479 791.913696,520.743652 792.919495,528.011169 
	C795.539490,546.943054 798.494934,565.774414 804.458862,584.013428 
	C805.400330,586.892822 806.419006,589.846863 806.000000,593.000000 
"/>
<path fill="none" opacity="1.000000" stroke="#000000" stroke-linecap="round" stroke-linejoin="round" stroke-width="10.000000"
	d="
M1233.000000,505.000000 
	C1219.645386,498.662994 1205.501221,497.069366 1191.010010,498.595398 
	C1184.347168,499.297028 1177.873169,501.295807 1171.478638,503.436218 
	C1168.607300,504.397369 1169.070190,506.451782 1169.000000,508.500000 
"/>
<path fill="none" opacity="1.000000" stroke="#000000" stroke-linecap="round" stroke-linejoin="round" stroke-width="10.000000"
	d="
M1090.500000,506.500000 
	C1076.792480,499.403412 1062.007324,498.218567 1047.007202,499.120483 
	C1040.784424,499.494659 1034.506958,500.388550 1028.469849,502.410004 
	C1026.922607,502.928070 1025.803711,503.137024 1026.000000,505.000000 
"/>
<path fill="none" opacity="1.000000" stroke="#000000" stroke-linecap="round" stroke-linejoin="round" stroke-width="10.000000"
	d="
M1093.500000,461.500000 
	C1093.966675,458.953369 1093.052979,457.585541 1090.537476,456.419189 
	C1076.842285,450.068848 1062.657715,447.156921 1047.489014,448.361237 
	C1041.013794,448.875336 1034.740112,449.909424 1028.500000,451.500000 
"/>
<path fill="none" opacity="1.000000" stroke="#000000" stroke-linecap="round" stroke-linejoin="round" stroke-width="10.000000"
	d="
M1099.000000,409.500000 
	C1086.927124,401.877045 1073.902344,397.694427 1059.511597,396.811523 
	C1049.901733,396.221863 1040.783325,398.106476 1031.500000,399.500000 
"/>
<path fill="none" opacity="1.000000" stroke="#000000" stroke-linecap="round" stroke-linejoin="round" stroke-width="10.000000"
	d="
M1234.500000,421.500000 
	C1214.276123,412.341003 1193.785034,411.401642 1173.000000,419.500000 
"/>
<path fill="none" opacity="1.000000" stroke="#000000" stroke-linecap="round" stroke-linejoin="round" stroke-width="15.000000"
	d="
M467.500000,400.500000 
	C480.833344,400.666656 494.186218,400.460724 507.491638,401.159485 
	C514.001038,401.501343 520.470093,402.276886 527.000000,401.750000 
"/>
</svg>